<svg xmlns="http://www.w3.org/2000/svg" xmlns:xlink="http://www.w3.org/1999/xlink" width="120" zoomAndPan="magnify" viewBox="0 0 90 89.999999" height="120" preserveAspectRatio="xMidYMid meet" version="1.0"><defs><clipPath id="84049cab99"><path d="M 4 25 L 86.382812 25 L 86.382812 90 L 4 90 Z M 4 25 " clip-rule="nonzero"/></clipPath></defs><path fill="#71b500" d="M 37.828125 57.78125 C 37.828125 57.117188 37.394531 56.667969 36.746094 56.667969 L 31.242188 56.667969 C 31.1875 56.667969 31.152344 56.667969 31.132812 56.648438 C 31.132812 56.648438 31.132812 56.632812 31.132812 56.632812 L 31.132812 53.324219 L 35.914062 53.324219 C 36.507812 53.324219 36.980469 52.855469 36.980469 52.226562 C 36.980469 51.5625 36.546875 51.113281 35.914062 51.113281 L 31.132812 51.113281 L 31.132812 48.398438 C 31.132812 48.363281 31.132812 48.34375 31.132812 48.324219 C 31.152344 48.324219 31.171875 48.324219 31.1875 48.324219 L 36.601562 48.324219 C 37.230469 48.324219 37.683594 47.859375 37.683594 47.191406 C 37.683594 46.527344 37.25 46.078125 36.601562 46.078125 L 30.792969 46.078125 C 29.421875 46.078125 28.773438 46.761719 28.773438 48.183594 L 28.773438 56.8125 C 28.773438 58.214844 29.4375 58.914062 30.792969 58.914062 L 36.746094 58.914062 C 37.375 58.914062 37.828125 58.449219 37.828125 57.78125 Z M 37.828125 57.78125 " fill-opacity="1" fill-rule="nonzero"/><path fill="#71b500" d="M 44.84375 59.167969 C 48.089844 59.167969 49.371094 56.957031 49.839844 55.625 C 49.894531 55.480469 49.910156 55.355469 49.910156 55.210938 C 49.910156 54.652344 49.460938 54.257812 49.046875 54.152344 C 48.339844 53.953125 47.710938 54.242188 47.476562 54.871094 C 47.042969 56.21875 46.160156 56.882812 44.789062 56.882812 C 42.75 56.882812 41.414062 55.15625 41.414062 52.496094 C 41.414062 49.78125 42.695312 48.09375 44.789062 48.09375 C 46.410156 48.09375 46.988281 48.957031 47.351562 49.835938 C 47.546875 50.25 47.945312 50.5 48.414062 50.5 C 48.613281 50.5 48.773438 50.464844 48.9375 50.410156 C 49.332031 50.285156 49.730469 49.90625 49.730469 49.367188 C 49.730469 49.207031 49.695312 49.046875 49.640625 48.882812 C 49.0625 47.5 47.765625 45.84375 44.753906 45.84375 C 41.308594 45.84375 39 48.523438 39 52.496094 C 38.980469 56.542969 41.289062 59.167969 44.84375 59.167969 Z M 44.84375 59.167969 " fill-opacity="1" fill-rule="nonzero"/><path fill="#71b500" d="M 56.980469 59.167969 C 60.515625 59.167969 62.789062 56.558594 62.789062 52.515625 C 62.789062 48.46875 60.515625 45.863281 56.980469 45.863281 C 53.429688 45.863281 51.136719 48.46875 51.136719 52.515625 C 51.15625 56.542969 53.445312 59.167969 56.980469 59.167969 Z M 56.980469 48.074219 C 59.019531 48.074219 60.355469 49.78125 60.355469 52.40625 C 60.355469 55.230469 59.089844 56.902344 56.980469 56.902344 C 54.890625 56.902344 53.589844 55.210938 53.589844 52.496094 C 53.589844 49.78125 54.890625 48.074219 56.980469 48.074219 Z M 56.980469 48.074219 " fill-opacity="1" fill-rule="nonzero"/><path fill="#71b500" d="M 25.328125 63.285156 L 21.503906 63.285156 C 20.636719 63.285156 20.222656 63.714844 20.222656 64.613281 L 20.222656 70.691406 C 20.222656 71.121094 20.527344 71.410156 20.980469 71.410156 C 21.429688 71.410156 21.753906 71.121094 21.753906 70.707031 L 21.753906 67.921875 L 24.785156 67.921875 C 25.183594 67.921875 25.472656 67.617188 25.472656 67.21875 C 25.472656 66.789062 25.199219 66.5 24.785156 66.5 L 21.753906 66.5 L 21.753906 64.738281 L 25.328125 64.738281 C 25.742188 64.738281 26.03125 64.433594 26.03125 64.019531 C 26.011719 63.570312 25.722656 63.285156 25.328125 63.285156 Z M 25.328125 63.285156 " fill-opacity="1" fill-rule="nonzero"/><path fill="#71b500" d="M 33.027344 69.863281 C 32.523438 68.585938 32.199219 67.867188 31.839844 67.453125 C 32.578125 67.09375 32.972656 66.410156 32.972656 65.496094 C 32.972656 64.128906 32.035156 63.265625 30.503906 63.265625 L 28.25 63.265625 C 27.382812 63.265625 26.96875 63.695312 26.96875 64.613281 L 26.96875 70.691406 C 26.96875 71.121094 27.273438 71.410156 27.742188 71.410156 C 28.195312 71.410156 28.5 71.121094 28.5 70.707031 L 28.5 68.011719 L 29.960938 68.011719 C 30.664062 68.011719 30.863281 68.390625 31.605469 70.367188 L 31.839844 70.976562 C 31.945312 71.246094 32.199219 71.425781 32.503906 71.425781 C 32.597656 71.425781 32.703125 71.410156 32.792969 71.390625 C 33.117188 71.300781 33.335938 71.03125 33.335938 70.726562 C 33.335938 70.636719 33.316406 70.5625 33.300781 70.472656 Z M 28.484375 64.722656 C 28.484375 64.703125 28.484375 64.703125 28.484375 64.6875 C 28.484375 64.6875 28.484375 64.6875 28.5 64.6875 L 30.449219 64.6875 C 31.117188 64.6875 31.441406 64.992188 31.441406 65.636719 C 31.441406 66.230469 31.042969 66.609375 30.394531 66.609375 L 28.484375 66.609375 Z M 28.484375 64.722656 " fill-opacity="1" fill-rule="nonzero"/><path fill="#71b500" d="M 35.140625 63.230469 C 34.6875 63.230469 34.382812 63.515625 34.382812 63.929688 L 34.382812 70.726562 C 34.382812 71.140625 34.6875 71.425781 35.140625 71.425781 C 35.589844 71.425781 35.914062 71.140625 35.914062 70.726562 L 35.914062 63.929688 C 35.914062 63.5 35.589844 63.230469 35.140625 63.230469 Z M 35.140625 63.230469 " fill-opacity="1" fill-rule="nonzero"/><path fill="#71b500" d="M 42.460938 69.917969 L 39.015625 69.917969 C 39 69.917969 38.980469 69.917969 38.960938 69.917969 L 38.960938 67.851562 L 41.9375 67.851562 C 42.335938 67.851562 42.625 67.542969 42.625 67.148438 C 42.625 66.734375 42.335938 66.429688 41.9375 66.429688 L 38.960938 66.429688 L 38.960938 64.757812 C 38.960938 64.738281 38.960938 64.738281 38.960938 64.722656 C 38.960938 64.722656 38.980469 64.722656 38.980469 64.722656 L 42.371094 64.722656 C 42.785156 64.722656 43.058594 64.417969 43.058594 64.003906 C 43.058594 63.589844 42.769531 63.285156 42.371094 63.285156 L 38.746094 63.285156 C 37.878906 63.285156 37.464844 63.714844 37.464844 64.632812 L 37.464844 70.023438 C 37.464844 70.90625 37.898438 71.355469 38.746094 71.355469 L 42.460938 71.355469 C 42.859375 71.355469 43.148438 71.050781 43.148438 70.636719 C 43.148438 70.203125 42.859375 69.917969 42.460938 69.917969 Z M 42.460938 69.917969 " fill-opacity="1" fill-rule="nonzero"/><path fill="#71b500" d="M 49.804688 63.230469 C 49.351562 63.230469 49.027344 63.515625 49.027344 63.929688 L 49.027344 66.824219 C 49.027344 67.488281 49.046875 68.136719 49.082031 68.710938 C 48.902344 68.371094 48.703125 68.03125 48.523438 67.742188 L 46.105469 63.824219 C 45.90625 63.515625 45.65625 63.195312 45.023438 63.230469 L 44.769531 62.671875 L 44.824219 63.265625 C 44.410156 63.355469 44.15625 63.679688 44.15625 64.128906 L 44.15625 70.746094 C 44.15625 71.15625 44.464844 71.445312 44.933594 71.445312 C 45.382812 71.445312 45.691406 71.15625 45.691406 70.746094 L 45.691406 67.796875 C 45.691406 67.148438 45.671875 66.484375 45.65625 65.90625 C 45.796875 66.179688 45.941406 66.429688 46.085938 66.644531 L 48.628906 70.761719 C 48.882812 71.15625 49.117188 71.445312 49.695312 71.445312 C 49.710938 71.445312 49.730469 71.445312 49.75 71.445312 L 50 71.964844 L 49.945312 71.410156 C 50.34375 71.320312 50.597656 70.996094 50.597656 70.527344 L 50.597656 63.949219 C 50.558594 63.5 50.273438 63.230469 49.804688 63.230469 Z M 49.804688 63.230469 " fill-opacity="1" fill-rule="nonzero"/><path fill="#71b500" d="M 55.105469 63.285156 L 53.390625 63.285156 C 52.527344 63.285156 52.113281 63.714844 52.113281 64.632812 L 52.113281 70.023438 C 52.113281 70.90625 52.542969 71.355469 53.390625 71.355469 L 55.105469 71.355469 C 57.378906 71.355469 58.785156 69.773438 58.785156 67.238281 C 58.785156 64.757812 57.414062 63.285156 55.105469 63.285156 Z M 57.234375 67.238281 C 57.234375 68.929688 56.441406 69.898438 55.070312 69.898438 L 53.644531 69.898438 C 53.644531 69.898438 53.644531 69.882812 53.644531 69.882812 L 53.664062 64.703125 L 55.105469 64.703125 C 56.511719 64.722656 57.234375 65.566406 57.234375 67.238281 Z M 57.234375 67.238281 " fill-opacity="1" fill-rule="nonzero"/><path fill="#71b500" d="M 65.007812 69.882812 L 61.617188 69.882812 C 61.597656 69.882812 61.582031 69.882812 61.582031 69.882812 C 61.582031 69.882812 61.582031 69.863281 61.582031 69.84375 L 61.582031 63.929688 C 61.582031 63.5 61.273438 63.230469 60.804688 63.230469 C 60.355469 63.230469 60.03125 63.515625 60.03125 63.949219 L 60.03125 70.023438 C 60.03125 70.90625 60.460938 71.355469 61.308594 71.355469 L 65.007812 71.355469 C 65.40625 71.355469 65.710938 71.03125 65.710938 70.601562 C 65.710938 70.1875 65.421875 69.882812 65.007812 69.882812 Z M 65.007812 69.882812 " fill-opacity="1" fill-rule="nonzero"/><path fill="#71b500" d="M 71.230469 63.320312 C 70.832031 63.105469 70.417969 63.210938 70.21875 63.554688 L 68.289062 66.554688 L 66.359375 63.535156 C 66.214844 63.320312 66 63.195312 65.765625 63.195312 C 65.601562 63.195312 65.476562 63.246094 65.351562 63.300781 C 65.078125 63.445312 64.917969 63.695312 64.917969 63.964844 C 64.917969 64.09375 64.953125 64.199219 65.027344 64.324219 L 67.53125 68.066406 L 67.53125 70.707031 C 67.53125 71.121094 67.839844 71.410156 68.308594 71.410156 C 68.757812 71.410156 69.066406 71.121094 69.066406 70.707031 L 69.066406 68.066406 L 71.535156 64.363281 C 71.609375 64.253906 71.664062 64.109375 71.664062 63.964844 C 71.644531 63.714844 71.484375 63.464844 71.230469 63.320312 Z M 71.230469 63.320312 " fill-opacity="1" fill-rule="nonzero"/><path fill="#71b500" d="M 80.683594 1.097656 C 80.03125 0.9375 79.492188 0.847656 78.894531 0.738281 C 78.320312 0.628906 77.742188 0.558594 77.164062 0.46875 C 76.011719 0.308594 74.855469 0.199219 73.683594 0.144531 C 71.355469 0.0195312 69.03125 0.0390625 66.703125 0.289062 C 64.375 0.503906 62.066406 0.953125 59.8125 1.621094 C 57.558594 2.285156 55.359375 3.21875 53.320312 4.40625 C 51.28125 5.609375 49.386719 7.066406 47.765625 8.757812 L 47.457031 9.0625 L 47.152344 9.402344 C 46.953125 9.636719 46.753906 9.851562 46.574219 10.085938 C 46.214844 10.574219 45.851562 11.039062 45.546875 11.5625 C 44.914062 12.566406 44.390625 13.628906 43.957031 14.707031 C 43.128906 16.882812 42.605469 19.128906 42.355469 21.378906 C 42.117188 23.371094 42.066406 25.351562 42.136719 27.328125 C 41.832031 26.25 41.453125 25.171875 40.929688 24.128906 C 40.496094 23.28125 39.992188 22.472656 39.378906 21.699219 C 39.070312 21.324219 38.746094 20.945312 38.386719 20.605469 C 38.023438 20.246094 37.664062 19.976562 37.304688 19.652344 C 35.804688 18.464844 34.109375 17.511719 32.308594 16.882812 C 31.40625 16.542969 30.484375 16.308594 29.566406 16.128906 C 28.644531 15.929688 27.707031 15.804688 26.769531 15.730469 C 24.894531 15.589844 23.035156 15.660156 21.214844 15.894531 C 20.292969 16.019531 19.394531 16.164062 18.492188 16.378906 C 18.039062 16.488281 17.589844 16.59375 17.136719 16.703125 L 16.472656 16.902344 C 16.238281 16.972656 16.039062 17.027344 15.75 17.132812 L 13.386719 17.980469 L 14.757812 20.101562 C 16.417969 22.652344 18.023438 25.441406 19.339844 28.15625 C 19.96875 29.519531 20.511719 30.960938 21.140625 32.488281 C 21.449219 33.242188 21.808594 34.035156 22.207031 34.804688 C 22.621094 35.578125 23.074219 36.335938 23.632812 37.054688 C 23.882812 37.414062 24.191406 37.738281 24.480469 38.078125 C 24.785156 38.382812 25.09375 38.726562 25.417969 39.011719 C 25.742188 39.300781 26.066406 39.605469 26.410156 39.859375 L 26.914062 40.253906 C 27.078125 40.378906 27.3125 40.523438 27.492188 40.648438 C 28.304688 41.152344 29.152344 41.476562 30 41.710938 C 30.847656 41.945312 31.695312 42.105469 32.523438 42.195312 C 34.199219 42.375 35.859375 42.375 37.484375 42.230469 C 39.105469 42.085938 40.730469 41.855469 42.300781 41.457031 C 39.070312 41.367188 35.859375 41.117188 32.882812 40.324219 C 31.40625 39.929688 30 39.355469 28.953125 38.546875 C 28.824219 38.4375 28.71875 38.347656 28.589844 38.222656 L 28.195312 37.828125 C 27.925781 37.574219 27.691406 37.289062 27.4375 37.035156 C 27.183594 36.765625 26.984375 36.480469 26.75 36.191406 C 26.554688 35.886719 26.335938 35.617188 26.15625 35.292969 C 25.777344 34.699219 25.472656 34.050781 25.164062 33.386719 C 24.894531 32.703125 24.625 32.003906 24.371094 31.28125 C 23.882812 29.808594 23.398438 28.226562 22.746094 26.664062 C 22.40625 25.871094 22.082031 25.117188 21.703125 24.378906 C 21.339844 23.640625 20.960938 22.90625 20.566406 22.1875 C 20.203125 21.519531 19.84375 20.875 19.464844 20.226562 C 20.203125 20.066406 20.960938 19.921875 21.703125 19.8125 C 23.308594 19.597656 24.910156 19.472656 26.5 19.5625 C 29.671875 19.667969 32.757812 20.515625 35.335938 22.238281 C 35.644531 22.472656 35.988281 22.691406 36.257812 22.921875 C 36.546875 23.15625 36.816406 23.410156 37.085938 23.679688 C 37.609375 24.21875 38.097656 24.828125 38.53125 25.476562 C 39.394531 26.789062 40.0625 28.296875 40.566406 29.863281 C 41.089844 31.445312 41.46875 33.097656 41.757812 34.769531 C 41.902344 35.617188 42.027344 36.460938 42.117188 37.324219 C 42.226562 38.1875 42.300781 39.03125 42.371094 39.914062 C 42.535156 39.050781 42.640625 38.1875 42.75 37.324219 C 42.824219 36.460938 42.875 35.578125 42.914062 34.699219 C 42.949219 32.9375 42.839844 31.15625 42.535156 29.394531 C 42.445312 28.839844 42.316406 28.28125 42.171875 27.742188 C 42.316406 26.769531 42.445312 25.800781 42.640625 24.847656 C 42.839844 23.75 43.074219 22.671875 43.363281 21.609375 C 43.632812 20.550781 43.976562 19.507812 44.335938 18.484375 C 44.734375 17.476562 45.148438 16.46875 45.65625 15.535156 C 46.160156 14.597656 46.699219 13.683594 47.351562 12.875 C 47.65625 12.441406 48.015625 12.082031 48.359375 11.6875 C 48.539062 11.507812 48.71875 11.328125 48.902344 11.148438 L 49.171875 10.878906 L 49.476562 10.625 C 51.082031 9.242188 52.851562 8.074219 54.726562 7.140625 C 58.496094 5.25 62.699219 4.316406 66.9375 4.027344 C 69.066406 3.882812 71.210938 3.902344 73.339844 4.066406 C 74.40625 4.15625 75.46875 4.261719 76.53125 4.40625 C 76.730469 4.441406 76.929688 4.476562 77.128906 4.496094 C 75.414062 7.964844 73.917969 11.472656 72.636719 15.140625 C 71.863281 17.441406 71.265625 19.757812 70.742188 22.023438 C 70.472656 23.140625 70.203125 24.253906 69.894531 25.3125 C 69.75 25.855469 69.570312 26.375 69.410156 26.894531 C 69.210938 27.398438 69.046875 27.9375 68.832031 28.425781 C 68 30.421875 66.882812 32.289062 65.457031 33.996094 L 64.359375 35.238281 L 63.800781 35.777344 C 63.617188 35.976562 63.382812 36.101562 63.1875 36.28125 L 62.878906 36.53125 C 62.769531 36.605469 62.664062 36.675781 62.535156 36.75 C 62.300781 36.890625 62.085938 37.054688 61.851562 37.199219 C 61.363281 37.46875 60.894531 37.738281 60.390625 37.96875 C 58.386719 38.960938 56.167969 39.605469 53.953125 40.183594 C 52.832031 40.453125 51.695312 40.703125 50.542969 40.902344 C 49.40625 41.117188 48.25 41.296875 47.078125 41.457031 C 48.25 41.53125 49.425781 41.511719 50.597656 41.511719 C 51.769531 41.476562 52.941406 41.40625 54.132812 41.296875 C 55.304688 41.171875 56.476562 41.007812 57.648438 40.757812 C 58.820312 40.503906 59.992188 40.21875 61.148438 39.804688 C 61.726562 39.605469 62.285156 39.355469 62.863281 39.101562 C 63.148438 38.976562 63.421875 38.816406 63.691406 38.671875 C 63.835938 38.601562 63.980469 38.527344 64.105469 38.457031 L 64.503906 38.203125 C 65.042969 37.878906 65.546875 37.46875 66.054688 37.054688 L 67.386719 35.796875 C 69.101562 34.050781 70.582031 31.984375 71.679688 29.753906 C 72.800781 27.527344 73.484375 25.171875 74.132812 22.941406 C 74.785156 20.695312 75.398438 18.519531 76.191406 16.453125 C 76.984375 14.328125 77.886719 12.226562 78.84375 10.140625 C 79.78125 8.074219 80.789062 5.988281 81.835938 4.011719 L 83.152344 1.691406 Z M 80.683594 1.097656 " fill-opacity="1" fill-rule="nonzero"/><path fill="#71b500" d="M 48.304688 37.160156 C 49.820312 35.578125 51.210938 33.925781 52.492188 32.183594 C 53.769531 30.4375 54.941406 28.605469 55.988281 26.699219 C 57.015625 24.773438 57.957031 22.78125 58.550781 20.53125 C 56.601562 21.789062 54.980469 23.28125 53.445312 24.847656 C 51.929688 26.429688 50.542969 28.082031 49.261719 29.828125 C 47.980469 31.570312 46.808594 33.40625 45.78125 35.328125 C 44.753906 37.25 43.816406 39.246094 43.203125 41.496094 C 45.148438 40.234375 46.773438 38.726562 48.304688 37.160156 Z M 48.304688 37.160156 " fill-opacity="1" fill-rule="nonzero"/><path fill="#71b500" d="M 37.683594 33.546875 C 36.761719 32.613281 35.753906 31.769531 34.632812 31.050781 C 33.496094 30.332031 32.269531 29.699219 30.757812 29.359375 C 31.082031 30.871094 31.695312 32.09375 32.398438 33.242188 C 33.101562 34.375 33.929688 35.398438 34.851562 36.335938 C 35.769531 37.269531 36.78125 38.097656 37.917969 38.816406 C 39.054688 39.535156 40.28125 40.164062 41.777344 40.503906 C 41.453125 38.996094 40.839844 37.773438 40.136719 36.621094 C 39.433594 35.507812 38.601562 34.484375 37.683594 33.546875 Z M 37.683594 33.546875 " fill-opacity="1" fill-rule="nonzero"/><g clip-path="url(#84049cab99)"><path fill="#71b500" d="M 78.246094 25.476562 C 79.363281 26.894531 80.375 28.425781 81.292969 30.007812 C 82.195312 31.605469 82.992188 33.261719 83.65625 34.96875 C 84.34375 36.675781 84.882812 38.4375 85.316406 40.234375 C 85.730469 42.035156 86.019531 43.867188 86.199219 45.71875 L 86.273438 46.421875 L 86.308594 47.121094 C 86.328125 47.589844 86.363281 48.054688 86.363281 48.523438 L 86.382812 49.925781 C 86.382812 50.394531 86.34375 50.859375 86.328125 51.328125 C 86.308594 52.261719 86.183594 53.179688 86.09375 54.113281 C 86.039062 54.582031 85.964844 55.03125 85.894531 55.5 L 85.785156 56.199219 C 85.75 56.433594 85.695312 56.667969 85.660156 56.882812 L 85.390625 58.269531 C 85.28125 58.71875 85.15625 59.183594 85.046875 59.632812 L 84.867188 60.316406 L 84.648438 60.980469 C 84.503906 61.433594 84.378906 61.882812 84.21875 62.332031 C 83.890625 63.210938 83.585938 64.109375 83.207031 64.957031 L 82.9375 65.601562 C 82.847656 65.816406 82.757812 66.035156 82.648438 66.25 L 82.035156 67.527344 C 78.625 74.25 73.269531 80.019531 66.757812 83.976562 L 65.53125 84.695312 C 65.117188 84.945312 64.683594 85.144531 64.269531 85.359375 C 63.4375 85.808594 62.554688 86.1875 61.6875 86.582031 C 61.257812 86.761719 60.804688 86.941406 60.355469 87.121094 L 59.6875 87.390625 L 59.019531 87.625 C 58.570312 87.789062 58.117188 87.949219 57.667969 88.09375 L 56.296875 88.488281 C 55.84375 88.632812 55.375 88.738281 54.90625 88.847656 C 54.4375 88.957031 53.988281 89.082031 53.519531 89.152344 C 52.582031 89.316406 51.640625 89.511719 50.6875 89.621094 C 48.792969 89.890625 46.878906 89.980469 44.96875 89.980469 C 41.144531 89.925781 37.339844 89.40625 33.660156 88.34375 C 32.738281 88.09375 31.839844 87.769531 30.9375 87.464844 C 30.484375 87.300781 30.050781 87.121094 29.601562 86.941406 L 28.933594 86.671875 C 28.71875 86.582031 28.5 86.476562 28.285156 86.386719 L 26.984375 85.792969 L 25.722656 85.125 C 25.289062 84.910156 24.894531 84.675781 24.480469 84.425781 L 23.867188 84.066406 C 23.667969 83.941406 23.449219 83.832031 23.253906 83.6875 L 22.0625 82.914062 C 21.863281 82.789062 21.664062 82.644531 21.46875 82.5 L 20.855469 82.050781 C 20.078125 81.511719 19.339844 80.902344 18.597656 80.308594 C 18.238281 80.003906 17.878906 79.679688 17.535156 79.375 C 17.355469 79.210938 17.175781 79.066406 17.011719 78.90625 L 16.507812 78.402344 C 16.164062 78.0625 15.820312 77.738281 15.496094 77.394531 L 14.523438 76.351562 C 13.261719 74.933594 12.070312 73.457031 11.023438 71.894531 L 10.628906 71.300781 L 10.25 70.691406 C 9.996094 70.292969 9.742188 69.882812 9.507812 69.484375 C 9.058594 68.660156 8.570312 67.851562 8.175781 66.988281 L 7.867188 66.359375 C 7.757812 66.140625 7.667969 65.925781 7.578125 65.710938 L 7.019531 64.417969 C 6.929688 64.199219 6.839844 63.984375 6.765625 63.75 L 6.515625 63.085938 C 6.351562 62.636719 6.191406 62.203125 6.046875 61.753906 L 5.628906 60.40625 C 5.503906 59.957031 5.394531 59.488281 5.269531 59.039062 L 5.089844 58.359375 C 5.035156 58.125 5 57.890625 4.945312 57.675781 L 4.675781 56.289062 C 4.0625 52.605469 3.882812 48.828125 4.277344 45.144531 C 5.035156 37.753906 7.941406 30.652344 12.503906 25.007812 C 11.546875 26.554688 10.679688 28.15625 9.960938 29.789062 C 9.203125 31.425781 8.570312 33.097656 8.046875 34.804688 C 7.921875 35.238281 7.796875 35.667969 7.6875 36.101562 L 7.363281 37.394531 L 7.074219 38.707031 C 6.984375 39.140625 6.910156 39.589844 6.839844 40.019531 C 6.550781 41.765625 6.371094 43.542969 6.316406 45.304688 C 6.316406 45.753906 6.296875 46.1875 6.296875 46.636719 L 6.316406 47.964844 C 6.335938 48.398438 6.371094 48.847656 6.386719 49.277344 L 6.425781 49.945312 C 6.441406 50.160156 6.480469 50.375 6.496094 50.589844 L 6.640625 51.902344 C 6.695312 52.335938 6.765625 52.765625 6.839844 53.199219 L 6.949219 53.84375 C 6.984375 54.0625 7.039062 54.277344 7.074219 54.492188 L 7.34375 55.769531 L 7.667969 57.046875 L 7.832031 57.675781 L 8.03125 58.304688 C 8.15625 58.71875 8.28125 59.128906 8.425781 59.542969 L 8.878906 60.765625 C 9.023438 61.179688 9.203125 61.574219 9.363281 61.972656 L 9.617188 62.5625 C 9.707031 62.761719 9.777344 62.960938 9.886719 63.15625 L 10.445312 64.324219 C 10.535156 64.523438 10.644531 64.722656 10.734375 64.902344 L 11.042969 65.476562 C 11.4375 66.25 11.90625 66.988281 12.359375 67.722656 C 12.59375 68.082031 12.84375 68.441406 13.078125 68.800781 L 13.441406 69.34375 L 13.835938 69.863281 C 14.847656 71.285156 15.984375 72.578125 17.175781 73.835938 L 18.09375 74.753906 C 18.402344 75.058594 18.726562 75.347656 19.050781 75.632812 L 19.519531 76.066406 C 19.679688 76.210938 19.84375 76.351562 20.007812 76.480469 L 21 77.304688 C 21.683594 77.828125 22.351562 78.367188 23.074219 78.851562 L 23.613281 79.210938 C 23.792969 79.335938 23.972656 79.464844 24.15625 79.570312 L 25.253906 80.253906 C 25.433594 80.378906 25.632812 80.46875 25.8125 80.578125 L 26.375 80.902344 C 26.75 81.117188 27.128906 81.332031 27.507812 81.511719 L 28.664062 82.089844 L 29.855469 82.609375 C 30.050781 82.699219 30.25 82.789062 30.449219 82.859375 L 31.042969 83.09375 C 31.441406 83.238281 31.839844 83.417969 32.253906 83.542969 C 33.066406 83.8125 33.875 84.101562 34.722656 84.316406 L 35.335938 84.496094 C 35.535156 84.550781 35.753906 84.625 35.96875 84.660156 L 37.230469 84.945312 L 37.539062 85.019531 L 37.863281 85.074219 L 38.492188 85.179688 C 38.925781 85.253906 39.339844 85.34375 39.773438 85.378906 L 41.054688 85.539062 C 41.269531 85.574219 41.488281 85.59375 41.703125 85.59375 L 42.355469 85.648438 C 43.21875 85.738281 44.066406 85.71875 44.933594 85.753906 C 46.664062 85.753906 48.378906 85.683594 50.089844 85.449219 C 50.957031 85.359375 51.785156 85.199219 52.632812 85.054688 C 53.066406 84.984375 53.480469 84.875 53.898438 84.785156 C 54.3125 84.695312 54.746094 84.605469 55.160156 84.480469 L 56.402344 84.136719 C 56.820312 84.011719 57.214844 83.867188 57.628906 83.742188 L 58.242188 83.542969 L 58.839844 83.3125 C 59.234375 83.148438 59.652344 83.003906 60.046875 82.84375 C 60.824219 82.484375 61.636719 82.160156 62.390625 81.765625 L 62.96875 81.476562 C 63.167969 81.386719 63.347656 81.277344 63.546875 81.171875 L 64.683594 80.542969 C 64.882812 80.433594 65.0625 80.328125 65.242188 80.21875 L 65.785156 79.875 C 66.144531 79.644531 66.523438 79.425781 66.867188 79.175781 L 67.929688 78.4375 C 68.273438 78.1875 68.613281 77.917969 68.957031 77.648438 C 69.121094 77.523438 69.300781 77.394531 69.460938 77.253906 L 69.949219 76.839844 C 70.273438 76.550781 70.617188 76.28125 70.941406 75.992188 C 71.574219 75.402344 72.222656 74.824219 72.816406 74.195312 C 73.449219 73.585938 74.007812 72.9375 74.585938 72.289062 C 74.875 71.964844 75.125 71.625 75.414062 71.285156 L 75.828125 70.78125 L 76.226562 70.257812 C 77.289062 68.890625 78.210938 67.417969 79.078125 65.90625 C 82.519531 59.851562 84.234375 52.839844 84.109375 45.773438 C 84.074219 44.011719 83.929688 42.230469 83.675781 40.488281 C 83.40625 38.726562 83.007812 37 82.519531 35.273438 C 82.035156 33.566406 81.402344 31.875 80.683594 30.222656 C 80.015625 28.640625 79.167969 27.039062 78.246094 25.476562 Z M 78.246094 25.476562 " fill-opacity="1" fill-rule="nonzero"/></g></svg>