<svg xmlns="http://www.w3.org/2000/svg" xmlns:xlink="http://www.w3.org/1999/xlink" width="120" zoomAndPan="magnify" viewBox="0 0 90 89.999999" height="120" preserveAspectRatio="xMidYMid meet" version="1.0"><path fill="#000000" d="M 45 90 C 20.1875 90 0 69.8125 0 45 C 0 20.1875 20.1875 0 45 0 C 69.8125 0 90 20.1875 90 45 C 90 69.8125 69.8125 90 45 90 Z M 45 2.351562 C 21.484375 2.351562 2.351562 21.484375 2.351562 45 C 2.351562 68.515625 21.484375 87.648438 45 87.648438 C 68.515625 87.648438 87.648438 68.515625 87.648438 45 C 87.648438 21.484375 68.515625 2.351562 45 2.351562 Z M 45 2.351562 " fill-opacity="1" fill-rule="nonzero"/><path fill="#000000" d="M 16.328125 59.9375 L 19.96875 65.441406 L 19.96875 59.886719 C 19.96875 59.527344 20.042969 59.257812 20.199219 59.074219 C 20.351562 58.894531 20.5625 58.804688 20.824219 58.804688 C 21.097656 58.804688 21.3125 58.894531 21.46875 59.074219 C 21.625 59.257812 21.707031 59.527344 21.707031 59.886719 L 21.707031 67.234375 C 21.707031 68.054688 21.367188 68.464844 20.6875 68.464844 C 20.515625 68.464844 20.363281 68.4375 20.230469 68.390625 C 20.09375 68.34375 19.964844 68.265625 19.847656 68.160156 C 19.726562 68.054688 19.617188 67.929688 19.515625 67.789062 C 19.410156 67.648438 19.3125 67.5 19.207031 67.351562 L 15.660156 61.910156 L 15.660156 67.382812 C 15.660156 67.742188 15.578125 68.011719 15.414062 68.195312 C 15.246094 68.375 15.035156 68.46875 14.777344 68.46875 C 14.507812 68.46875 14.292969 68.375 14.132812 68.191406 C 13.96875 68.007812 13.890625 67.738281 13.890625 67.386719 L 13.890625 60.179688 C 13.890625 59.875 13.925781 59.632812 13.992188 59.460938 C 14.074219 59.269531 14.207031 59.113281 14.394531 58.992188 C 14.578125 58.871094 14.78125 58.808594 15 58.808594 C 15.167969 58.808594 15.316406 58.835938 15.4375 58.890625 C 15.558594 58.945312 15.664062 59.019531 15.753906 59.113281 C 15.84375 59.207031 15.941406 59.328125 16.035156 59.476562 C 16.128906 59.621094 16.226562 59.777344 16.328125 59.9375 Z M 16.328125 59.9375 " fill-opacity="1" fill-rule="nonzero"/><path fill="#000000" d="M 29.710938 67.246094 L 29.269531 66.074219 L 25.46875 66.074219 L 25.023438 67.273438 C 24.851562 67.742188 24.703125 68.054688 24.582031 68.21875 C 24.457031 68.382812 24.253906 68.464844 23.972656 68.464844 C 23.738281 68.464844 23.527344 68.375 23.34375 68.203125 C 23.160156 68.027344 23.070312 67.828125 23.070312 67.609375 C 23.070312 67.480469 23.089844 67.351562 23.132812 67.214844 C 23.175781 67.078125 23.246094 66.890625 23.34375 66.644531 L 25.730469 60.582031 C 25.800781 60.40625 25.882812 60.195312 25.980469 59.953125 C 26.074219 59.707031 26.175781 59.503906 26.285156 59.34375 C 26.394531 59.179688 26.535156 59.050781 26.710938 58.953125 C 26.890625 58.851562 27.105469 58.804688 27.363281 58.804688 C 27.628906 58.804688 27.847656 58.851562 28.027344 58.953125 C 28.203125 59.054688 28.34375 59.179688 28.453125 59.339844 C 28.5625 59.496094 28.652344 59.664062 28.726562 59.84375 C 28.800781 60.023438 28.894531 60.265625 29.011719 60.566406 L 31.449219 66.59375 C 31.640625 67.050781 31.738281 67.386719 31.738281 67.59375 C 31.738281 67.8125 31.648438 68.011719 31.464844 68.191406 C 31.285156 68.371094 31.066406 68.460938 30.8125 68.460938 C 30.664062 68.460938 30.535156 68.4375 30.429688 68.382812 C 30.324219 68.328125 30.234375 68.257812 30.164062 68.167969 C 30.089844 68.074219 30.015625 67.933594 29.929688 67.746094 C 29.84375 67.558594 29.773438 67.390625 29.710938 67.246094 Z M 25.964844 64.652344 L 28.757812 64.652344 L 27.351562 60.800781 Z M 25.964844 64.652344 " fill-opacity="1" fill-rule="nonzero"/><path fill="#000000" d="M 38.171875 60.523438 L 36.109375 60.523438 L 36.109375 67.308594 C 36.109375 67.699219 36.019531 67.992188 35.847656 68.179688 C 35.671875 68.367188 35.445312 68.460938 35.171875 68.460938 C 34.890625 68.460938 34.664062 68.367188 34.488281 68.171875 C 34.3125 67.984375 34.222656 67.691406 34.222656 67.308594 L 34.222656 60.519531 L 32.160156 60.519531 C 31.835938 60.519531 31.59375 60.449219 31.4375 60.308594 C 31.28125 60.167969 31.203125 59.980469 31.203125 59.746094 C 31.203125 59.503906 31.285156 59.308594 31.445312 59.171875 C 31.609375 59.03125 31.847656 58.960938 32.15625 58.960938 L 38.171875 58.960938 C 38.496094 58.960938 38.742188 59.03125 38.902344 59.175781 C 39.058594 59.320312 39.140625 59.511719 39.140625 59.746094 C 39.140625 59.980469 39.058594 60.167969 38.898438 60.308594 C 38.734375 60.453125 38.496094 60.523438 38.171875 60.523438 Z M 38.171875 60.523438 " fill-opacity="1" fill-rule="nonzero"/><path fill="#000000" d="M 40.40625 64.441406 L 40.40625 59.949219 C 40.40625 59.566406 40.492188 59.28125 40.660156 59.089844 C 40.835938 58.898438 41.0625 58.800781 41.339844 58.800781 C 41.632812 58.800781 41.867188 58.894531 42.039062 59.089844 C 42.210938 59.277344 42.296875 59.566406 42.296875 59.949219 L 42.296875 64.546875 C 42.296875 65.066406 42.355469 65.503906 42.472656 65.855469 C 42.589844 66.203125 42.796875 66.476562 43.09375 66.667969 C 43.394531 66.863281 43.808594 66.960938 44.34375 66.960938 C 45.082031 66.960938 45.605469 66.765625 45.914062 66.371094 C 46.21875 65.976562 46.371094 65.382812 46.371094 64.585938 L 46.371094 59.949219 C 46.371094 59.566406 46.457031 59.277344 46.625 59.085938 C 46.792969 58.898438 47.019531 58.804688 47.304688 58.804688 C 47.59375 58.804688 47.824219 58.898438 48 59.085938 C 48.175781 59.277344 48.261719 59.5625 48.261719 59.949219 L 48.261719 64.441406 C 48.261719 65.171875 48.191406 65.78125 48.050781 66.269531 C 47.910156 66.757812 47.636719 67.1875 47.246094 67.558594 C 46.90625 67.871094 46.507812 68.101562 46.058594 68.25 C 45.609375 68.390625 45.082031 68.464844 44.476562 68.464844 C 43.761719 68.464844 43.144531 68.386719 42.625 68.234375 C 42.105469 68.078125 41.683594 67.835938 41.355469 67.511719 C 41.03125 67.1875 40.789062 66.773438 40.636719 66.261719 C 40.480469 65.753906 40.40625 65.148438 40.40625 64.441406 Z M 40.40625 64.441406 " fill-opacity="1" fill-rule="nonzero"/><path fill="#000000" d="M 52.980469 64.308594 L 52.316406 64.308594 L 52.316406 67.308594 C 52.316406 67.707031 52.230469 67.996094 52.054688 68.179688 C 51.882812 68.371094 51.65625 68.460938 51.375 68.460938 C 51.074219 68.460938 50.839844 68.363281 50.671875 68.167969 C 50.507812 67.972656 50.425781 67.6875 50.425781 67.308594 L 50.425781 60.121094 C 50.425781 59.710938 50.515625 59.417969 50.699219 59.234375 C 50.882812 59.054688 51.175781 58.960938 51.585938 58.960938 L 54.664062 58.960938 C 55.085938 58.960938 55.449219 58.976562 55.753906 59.015625 C 56.054688 59.050781 56.328125 59.125 56.570312 59.234375 C 56.863281 59.355469 57.121094 59.53125 57.34375 59.761719 C 57.570312 59.992188 57.742188 60.257812 57.855469 60.5625 C 57.972656 60.867188 58.03125 61.1875 58.03125 61.527344 C 58.03125 62.222656 57.835938 62.777344 57.441406 63.195312 C 57.050781 63.613281 56.453125 63.90625 55.65625 64.078125 C 55.992188 64.257812 56.3125 64.523438 56.617188 64.871094 C 56.921875 65.214844 57.195312 65.589844 57.433594 65.980469 C 57.675781 66.375 57.863281 66.730469 57.996094 67.042969 C 58.128906 67.359375 58.195312 67.578125 58.195312 67.699219 C 58.195312 67.820312 58.15625 67.941406 58.078125 68.0625 C 58 68.183594 57.894531 68.277344 57.757812 68.351562 C 57.621094 68.421875 57.464844 68.457031 57.285156 68.457031 C 57.074219 68.457031 56.894531 68.40625 56.75 68.308594 C 56.609375 68.207031 56.480469 68.082031 56.378906 67.929688 C 56.277344 67.777344 56.132812 67.550781 55.953125 67.253906 L 55.195312 65.992188 C 54.921875 65.527344 54.679688 65.175781 54.464844 64.933594 C 54.253906 64.691406 54.035156 64.523438 53.8125 64.4375 C 53.589844 64.351562 53.316406 64.308594 52.980469 64.308594 Z M 54.0625 60.386719 L 52.316406 60.386719 L 52.316406 62.953125 L 54.011719 62.953125 C 54.464844 62.953125 54.847656 62.914062 55.15625 62.835938 C 55.46875 62.753906 55.703125 62.621094 55.867188 62.433594 C 56.03125 62.246094 56.113281 61.984375 56.113281 61.652344 C 56.113281 61.394531 56.046875 61.164062 55.914062 60.96875 C 55.785156 60.769531 55.601562 60.625 55.367188 60.527344 C 55.148438 60.429688 54.714844 60.386719 54.0625 60.386719 Z M 54.0625 60.386719 " fill-opacity="1" fill-rule="nonzero"/><path fill="#000000" d="M 65.929688 67.246094 L 65.488281 66.074219 L 61.6875 66.074219 L 61.242188 67.273438 C 61.070312 67.742188 60.921875 68.054688 60.800781 68.21875 C 60.675781 68.382812 60.472656 68.464844 60.191406 68.464844 C 59.957031 68.464844 59.746094 68.375 59.5625 68.203125 C 59.378906 68.027344 59.289062 67.828125 59.289062 67.609375 C 59.289062 67.480469 59.308594 67.351562 59.351562 67.214844 C 59.394531 67.078125 59.464844 66.890625 59.5625 66.644531 L 61.949219 60.582031 C 62.019531 60.40625 62.101562 60.195312 62.199219 59.953125 C 62.292969 59.707031 62.394531 59.503906 62.503906 59.34375 C 62.613281 59.179688 62.753906 59.050781 62.929688 58.953125 C 63.109375 58.851562 63.324219 58.804688 63.582031 58.804688 C 63.847656 58.804688 64.066406 58.851562 64.246094 58.953125 C 64.421875 59.054688 64.5625 59.179688 64.671875 59.339844 C 64.78125 59.496094 64.871094 59.664062 64.945312 59.84375 C 65.019531 60.023438 65.113281 60.265625 65.230469 60.566406 L 67.667969 66.59375 C 67.859375 67.050781 67.957031 67.386719 67.957031 67.59375 C 67.957031 67.8125 67.867188 68.011719 67.683594 68.191406 C 67.503906 68.371094 67.285156 68.460938 67.03125 68.460938 C 66.882812 68.460938 66.753906 68.4375 66.648438 68.382812 C 66.542969 68.328125 66.453125 68.257812 66.382812 68.167969 C 66.308594 68.074219 66.230469 67.933594 66.148438 67.746094 C 66.0625 67.558594 65.992188 67.390625 65.929688 67.246094 Z M 62.183594 64.652344 L 64.976562 64.652344 L 63.566406 60.800781 Z M 62.183594 64.652344 " fill-opacity="1" fill-rule="nonzero"/><path fill="#000000" d="M 71.328125 59.949219 L 71.328125 66.75 L 75.160156 66.75 C 75.464844 66.75 75.699219 66.824219 75.863281 66.972656 C 76.03125 67.121094 76.109375 67.308594 76.109375 67.535156 C 76.109375 67.761719 76.03125 67.949219 75.867188 68.089844 C 75.707031 68.234375 75.472656 68.304688 75.160156 68.304688 L 70.589844 68.304688 C 70.179688 68.304688 69.882812 68.210938 69.699219 68.03125 C 69.519531 67.847656 69.429688 67.550781 69.429688 67.144531 L 69.429688 59.949219 C 69.429688 59.566406 69.519531 59.28125 69.6875 59.089844 C 69.859375 58.898438 70.085938 58.800781 70.367188 58.800781 C 70.652344 58.800781 70.882812 58.894531 71.058594 59.082031 C 71.238281 59.277344 71.328125 59.566406 71.328125 59.949219 Z M 71.328125 59.949219 " fill-opacity="1" fill-rule="nonzero"/><path fill="#000000" d="M 34.226562 71.777344 C 34.039062 71.777344 33.910156 71.816406 33.835938 71.894531 C 33.777344 71.960938 33.640625 72.136719 33.441406 72.417969 C 33.242188 72.691406 33.015625 72.941406 32.761719 73.164062 C 32.507812 73.382812 32.164062 73.597656 31.738281 73.796875 C 31.445312 73.9375 31.242188 74.046875 31.121094 74.136719 C 30.988281 74.234375 30.921875 74.390625 30.921875 74.59375 C 30.921875 74.765625 30.984375 74.921875 31.113281 75.050781 C 31.242188 75.183594 31.390625 75.25 31.5625 75.25 C 31.878906 75.25 32.460938 74.929688 33.332031 74.269531 L 33.332031 79.023438 C 33.332031 79.324219 33.40625 79.558594 33.550781 79.71875 C 33.695312 79.875 33.886719 79.957031 34.121094 79.957031 C 34.652344 79.957031 34.921875 79.574219 34.921875 78.8125 L 34.921875 72.667969 C 34.921875 72.394531 34.859375 72.179688 34.738281 72.023438 C 34.609375 71.859375 34.4375 71.777344 34.226562 71.777344 Z M 34.226562 71.777344 " fill-opacity="1" fill-rule="nonzero"/><path fill="#000000" d="M 41.894531 72.492188 C 41.664062 72.257812 41.390625 72.078125 41.082031 71.953125 C 40.777344 71.832031 40.429688 71.769531 40.058594 71.769531 C 39.488281 71.769531 38.992188 71.910156 38.582031 72.183594 C 38.171875 72.460938 37.851562 72.867188 37.636719 73.394531 C 37.515625 73.710938 37.421875 74.089844 37.367188 74.523438 C 37.308594 74.960938 37.277344 75.453125 37.277344 75.992188 C 37.277344 76.414062 37.304688 76.8125 37.355469 77.171875 C 37.40625 77.535156 37.492188 77.867188 37.605469 78.171875 C 37.824219 78.722656 38.160156 79.164062 38.601562 79.476562 C 39.042969 79.792969 39.546875 79.949219 40.101562 79.949219 C 40.582031 79.949219 41.027344 79.832031 41.421875 79.597656 C 41.816406 79.363281 42.144531 79.027344 42.390625 78.597656 C 42.585938 78.25 42.722656 77.859375 42.792969 77.429688 C 42.867188 77.003906 42.902344 76.492188 42.902344 75.902344 C 42.902344 74.816406 42.761719 73.96875 42.488281 73.371094 C 42.324219 73.023438 42.128906 72.726562 41.894531 72.492188 Z M 38.882812 75.835938 C 38.882812 74.855469 38.972656 74.125 39.152344 73.660156 C 39.328125 73.207031 39.632812 72.988281 40.078125 72.988281 C 40.390625 72.988281 40.628906 73.085938 40.804688 73.285156 C 40.980469 73.488281 41.109375 73.796875 41.183594 74.199219 C 41.261719 74.613281 41.300781 75.148438 41.300781 75.796875 C 41.300781 76.484375 41.261719 77.042969 41.1875 77.460938 C 41.113281 77.871094 40.988281 78.191406 40.808594 78.414062 C 40.632812 78.628906 40.398438 78.730469 40.085938 78.730469 C 39.785156 78.730469 39.554688 78.632812 39.378906 78.425781 C 39.203125 78.214844 39.074219 77.898438 38.996094 77.480469 C 38.921875 77.058594 38.882812 76.503906 38.882812 75.835938 Z M 38.882812 75.835938 " fill-opacity="1" fill-rule="nonzero"/><path fill="#000000" d="M 48.429688 72.492188 C 48.199219 72.257812 47.925781 72.078125 47.617188 71.953125 C 47.3125 71.832031 46.964844 71.769531 46.589844 71.769531 C 46.023438 71.769531 45.523438 71.910156 45.117188 72.183594 C 44.703125 72.460938 44.386719 72.867188 44.171875 73.394531 C 44.046875 73.710938 43.957031 74.089844 43.898438 74.523438 C 43.84375 74.960938 43.8125 75.453125 43.8125 75.992188 C 43.8125 76.414062 43.835938 76.8125 43.890625 77.171875 C 43.941406 77.535156 44.027344 77.867188 44.136719 78.171875 C 44.359375 78.722656 44.695312 79.164062 45.136719 79.476562 C 45.574219 79.792969 46.078125 79.949219 46.636719 79.949219 C 47.117188 79.949219 47.5625 79.832031 47.957031 79.597656 C 48.351562 79.363281 48.675781 79.027344 48.925781 78.597656 C 49.121094 78.25 49.253906 77.859375 49.328125 77.429688 C 49.398438 77.003906 49.4375 76.492188 49.4375 75.902344 C 49.4375 74.816406 49.296875 73.96875 49.023438 73.371094 C 48.859375 73.023438 48.660156 72.726562 48.429688 72.492188 Z M 45.53125 77.480469 C 45.453125 77.058594 45.414062 76.503906 45.414062 75.839844 C 45.414062 74.859375 45.503906 74.125 45.683594 73.660156 C 45.859375 73.207031 46.164062 72.988281 46.609375 72.988281 C 46.921875 72.988281 47.160156 73.085938 47.335938 73.289062 C 47.511719 73.492188 47.640625 73.800781 47.71875 74.203125 C 47.796875 74.613281 47.832031 75.152344 47.832031 75.796875 C 47.832031 76.488281 47.796875 77.046875 47.71875 77.460938 C 47.648438 77.875 47.523438 78.195312 47.34375 78.414062 C 47.167969 78.632812 46.929688 78.734375 46.621094 78.734375 C 46.320312 78.734375 46.085938 78.632812 45.914062 78.429688 C 45.734375 78.210938 45.605469 77.894531 45.53125 77.480469 Z M 45.53125 77.480469 " fill-opacity="1" fill-rule="nonzero"/><path fill="#000000" d="M 58.96875 76.875 C 58.894531 76.609375 58.777344 76.386719 58.625 76.210938 C 58.46875 76.03125 58.277344 75.894531 58.0625 75.804688 C 57.847656 75.714844 57.59375 75.671875 57.308594 75.671875 C 56.707031 75.671875 56.261719 75.859375 55.984375 76.226562 C 55.710938 76.589844 55.570312 77.132812 55.570312 77.84375 C 55.570312 78.289062 55.644531 78.667969 55.792969 78.972656 C 55.945312 79.28125 56.15625 79.511719 56.421875 79.660156 C 56.6875 79.808594 56.992188 79.882812 57.324219 79.882812 C 57.863281 79.882812 58.292969 79.710938 58.609375 79.363281 C 58.917969 79.019531 59.074219 78.492188 59.074219 77.796875 C 59.078125 77.441406 59.042969 77.132812 58.96875 76.875 Z M 57.800781 76.753906 C 57.894531 76.957031 57.945312 77.285156 57.945312 77.738281 C 57.945312 78.210938 57.898438 78.558594 57.804688 78.777344 C 57.71875 78.980469 57.5625 79.078125 57.328125 79.078125 C 57.097656 79.078125 56.9375 78.980469 56.847656 78.78125 C 56.75 78.566406 56.699219 78.222656 56.699219 77.753906 C 56.699219 77.449219 56.71875 77.199219 56.761719 77.007812 C 56.800781 76.828125 56.863281 76.691406 56.957031 76.597656 C 57.042969 76.511719 57.171875 76.464844 57.328125 76.464844 C 57.558594 76.472656 57.714844 76.5625 57.800781 76.753906 Z M 57.800781 76.753906 " fill-opacity="1" fill-rule="nonzero"/><path fill="#000000" d="M 53.117188 75.480469 C 53.425781 75.132812 53.582031 74.609375 53.582031 73.910156 C 53.582031 73.5625 53.546875 73.253906 53.472656 72.996094 C 53.398438 72.734375 53.285156 72.507812 53.132812 72.328125 C 52.980469 72.140625 52.792969 72.003906 52.570312 71.914062 C 52.351562 71.824219 52.097656 71.777344 51.808594 71.777344 C 51.410156 71.777344 51.078125 71.863281 50.820312 72.03125 C 50.5625 72.199219 50.371094 72.449219 50.257812 72.769531 C 50.144531 73.089844 50.085938 73.488281 50.085938 73.957031 C 50.085938 74.398438 50.160156 74.777344 50.308594 75.085938 C 50.457031 75.398438 50.667969 75.632812 50.933594 75.777344 C 51.195312 75.925781 51.496094 76 51.828125 76 C 52.371094 76 52.800781 75.824219 53.117188 75.480469 Z M 52.304688 72.863281 C 52.402344 73.066406 52.449219 73.398438 52.449219 73.855469 C 52.449219 74.332031 52.402344 74.683594 52.3125 74.902344 C 52.226562 75.101562 52.070312 75.199219 51.832031 75.199219 C 51.671875 75.199219 51.554688 75.15625 51.464844 75.066406 C 51.375 74.972656 51.308594 74.832031 51.277344 74.644531 C 51.242188 74.449219 51.21875 74.191406 51.21875 73.878906 C 51.21875 73.578125 51.238281 73.328125 51.277344 73.132812 C 51.3125 72.945312 51.378906 72.804688 51.46875 72.714844 C 51.558594 72.625 51.679688 72.582031 51.835938 72.582031 C 52.0625 72.578125 52.214844 72.671875 52.304688 72.863281 Z M 52.304688 72.863281 " fill-opacity="1" fill-rule="nonzero"/><path fill="#000000" d="M 57.359375 72.125 C 57.359375 72.003906 57.324219 71.902344 57.242188 71.828125 C 57.164062 71.753906 57.0625 71.71875 56.9375 71.71875 C 56.808594 71.71875 56.707031 71.757812 56.636719 71.839844 C 56.574219 71.90625 56.503906 72.007812 56.421875 72.144531 L 51.925781 79.410156 C 51.84375 79.527344 51.804688 79.628906 51.804688 79.71875 C 51.804688 79.835938 51.859375 79.9375 51.957031 80.011719 C 52.046875 80.085938 52.144531 80.121094 52.242188 80.121094 C 52.410156 80.121094 52.558594 80.011719 52.683594 79.792969 L 57.15625 72.585938 C 57.339844 72.289062 57.359375 72.179688 57.359375 72.125 Z M 57.359375 72.125 " fill-opacity="1" fill-rule="nonzero"/><path fill="#000000" d="M 47.207031 49.566406 C 53.335938 41.628906 58.757812 33.171875 63.417969 24.292969 L 65 21.277344 L 61.6875 26.621094 C 57.160156 33.925781 52.09375 40.878906 46.53125 47.425781 L 43.472656 51.03125 C 43.121094 47.746094 42.84375 39.433594 47.300781 30.734375 C 48.960938 27.492188 51.261719 24.601562 54.152344 22.382812 C 59.109375 18.585938 65.816406 18.386719 68.199219 12.835938 C 68.199219 12.835938 75.074219 27.871094 67.59375 40.144531 C 60.351562 51.328125 48.710938 52.464844 44.921875 52.523438 Z M 47.207031 49.566406 " fill-opacity="1" fill-rule="nonzero"/><path fill="#000000" d="M 38.660156 50.460938 C 33.445312 45.246094 28.691406 39.585938 24.460938 33.546875 L 23.023438 31.496094 L 25.941406 35.085938 C 29.929688 39.984375 34.28125 44.582031 38.953125 48.839844 L 41.523438 51.179688 C 41.730469 47.199219 40.925781 39.742188 34.265625 33.71875 C 30.230469 29.761719 20.15625 29.179688 19.894531 25.640625 C 19.894531 25.640625 16.289062 37.253906 22.902344 45.503906 C 29.238281 52.984375 37.835938 52.71875 40.605469 52.410156 Z M 38.660156 50.460938 " fill-opacity="1" fill-rule="nonzero"/></svg>