<svg xmlns="http://www.w3.org/2000/svg" xmlns:xlink="http://www.w3.org/1999/xlink" width="120" zoomAndPan="magnify" viewBox="0 0 90 89.999999" height="120" preserveAspectRatio="xMidYMid meet" version="1.0"><defs><clipPath id="307110ca47"><path d="M 6.917969 0 L 83.417969 0 L 83.417969 41 L 6.917969 41 Z M 6.917969 0 " clip-rule="nonzero"/></clipPath></defs><path fill="#4f4f1a" d="M 47.324219 82.019531 L 45.167969 89.957031 L 43.015625 82.019531 L 43.015625 39.097656 L 47.324219 39.097656 L 47.324219 82.019531 " fill-opacity="1" fill-rule="nonzero"/><path fill="#3a3918" d="M 45.835938 41.082031 L 45.835938 87.503906 L 47.324219 82.019531 L 47.324219 39.097656 L 45.835938 41.082031 " fill-opacity="1" fill-rule="nonzero"/><path fill="#3a3918" d="M 43.015625 38.773438 L 47.324219 38.773438 L 47.324219 42.65625 L 43.015625 42.65625 L 43.015625 38.773438 " fill-opacity="1" fill-rule="nonzero"/><g clip-path="url(#307110ca47)"><path fill="#4f4f1a" d="M 83.417969 29.554688 C 83.417969 35.453125 78.722656 40.28125 72.984375 40.28125 L 17.355469 40.28125 C 11.613281 40.28125 6.921875 35.453125 6.921875 29.554688 L 6.921875 10.765625 C 6.921875 4.867188 11.613281 0.0429688 17.355469 0.0429688 L 72.984375 0.0429688 C 78.722656 0.0429688 83.417969 4.867188 83.417969 10.765625 L 83.417969 29.554688 " fill-opacity="1" fill-rule="nonzero"/></g><path fill="#96962c" d="M 81.710938 28.851562 C 81.710938 34.308594 77.226562 38.773438 71.742188 38.773438 L 18.59375 38.773438 C 13.113281 38.773438 8.625 34.308594 8.625 28.851562 L 8.625 11.472656 C 8.625 6.011719 13.113281 1.550781 18.59375 1.550781 L 71.742188 1.550781 C 77.226562 1.550781 81.710938 6.011719 81.710938 11.472656 L 81.710938 28.851562 " fill-opacity="1" fill-rule="nonzero"/><path fill="#ececea" d="M 77.675781 26.777344 C 77.675781 31.144531 74.085938 34.714844 69.699219 34.714844 L 20.636719 34.714844 C 16.25 34.714844 12.660156 31.144531 12.660156 26.777344 L 12.660156 13.546875 C 12.660156 9.179688 16.25 5.609375 20.636719 5.609375 L 69.699219 5.609375 C 74.085938 5.609375 77.675781 9.179688 77.675781 13.546875 L 77.675781 26.777344 " fill-opacity="1" fill-rule="nonzero"/><path fill="#7e7f25" d="M 30.816406 12.238281 C 29.808594 12.238281 28.507812 12.0625 26.914062 11.710938 L 25.746094 17.21875 L 29.808594 17.21875 L 29.359375 19.277344 L 25.296875 19.277344 L 23.039062 29.695312 L 19.027344 29.695312 L 23.039062 11.183594 C 21.859375 11.21875 20.964844 11.664062 20.347656 12.507812 C 19.730469 13.347656 19.421875 14.820312 19.421875 16.921875 C 19.421875 17.652344 19.535156 18.214844 19.761719 18.613281 C 19.800781 18.6875 19.816406 18.75 19.816406 18.800781 C 18.320312 18.800781 17.386719 18.328125 17.015625 17.382812 C 16.890625 17.039062 16.828125 16.511719 16.828125 15.796875 C 16.828125 15.085938 17 14.296875 17.34375 13.429688 C 17.6875 12.5625 18.238281 11.796875 19 11.128906 C 20.679688 9.648438 23.121094 8.910156 26.328125 8.910156 C 26.9375 8.910156 27.632812 8.964844 28.421875 9.078125 C 29.210938 9.191406 30.070312 9.246094 31.003906 9.246094 C 31.9375 9.246094 32.753906 9.136719 33.453125 8.910156 L 33.195312 9.84375 C 32.859375 11.167969 32.0625 11.96875 30.816406 12.238281 " fill-opacity="1" fill-rule="nonzero"/><path fill="#7e7f25" d="M 28.296875 29.699219 L 31.25 15.839844 L 35.257812 15.839844 L 34.90625 17.558594 C 35.367188 17.152344 35.878906 16.765625 36.433594 16.394531 C 36.992188 16.023438 37.59375 15.839844 38.242188 15.839844 C 38.890625 15.839844 39.378906 16.050781 39.703125 16.472656 C 40.03125 16.898438 40.195312 17.304688 40.195312 17.695312 C 40.195312 18.359375 40.015625 18.902344 39.65625 19.316406 C 39.300781 19.730469 38.867188 19.941406 38.359375 19.941406 C 37.851562 19.941406 37.515625 19.824219 37.351562 19.59375 C 37.191406 19.363281 37.089844 19.128906 37.054688 18.890625 C 37.019531 18.652344 36.96875 18.460938 36.910156 18.324219 C 36.851562 18.183594 36.726562 18.113281 36.535156 18.113281 C 36.15625 18.113281 35.820312 18.203125 35.53125 18.375 C 35.238281 18.554688 34.910156 18.816406 34.539062 19.167969 L 32.308594 29.699219 L 28.296875 29.699219 " fill-opacity="1" fill-rule="nonzero"/><path fill="#7e7f25" d="M 47.902344 18.058594 C 47.902344 17.390625 47.671875 17.058594 47.207031 17.058594 C 46.527344 17.074219 45.871094 17.671875 45.238281 18.851562 C 44.601562 20.027344 44.144531 21.332031 43.863281 22.769531 C 44.933594 22.695312 45.875 22.199219 46.683594 21.28125 C 47.496094 20.359375 47.902344 19.285156 47.902344 18.058594 Z M 51.464844 24.730469 C 49.378906 28.152344 46.828125 29.859375 43.808594 29.859375 C 42.484375 29.859375 41.433594 29.519531 40.644531 28.839844 C 39.855469 28.15625 39.460938 27.03125 39.460938 25.460938 C 39.460938 23.347656 40 21.308594 41.078125 19.332031 C 41.902344 17.824219 43.027344 16.75 44.449219 16.109375 C 45.183594 15.765625 45.945312 15.59375 46.730469 15.59375 C 48.019531 15.59375 48.894531 15.835938 49.355469 16.320312 C 49.820312 16.800781 50.050781 17.445312 50.050781 18.246094 C 50.050781 19.828125 49.410156 21.167969 48.132812 22.273438 C 46.855469 23.378906 45.359375 23.984375 43.648438 24.09375 C 43.601562 24.617188 43.578125 24.988281 43.578125 25.203125 C 43.578125 26.152344 43.746094 26.777344 44.082031 27.078125 C 44.417969 27.378906 44.886719 27.53125 45.496094 27.53125 C 46.566406 27.53125 47.464844 27.292969 48.195312 26.820312 C 48.921875 26.347656 49.695312 25.652344 50.511719 24.730469 L 51.464844 24.730469 " fill-opacity="1" fill-rule="nonzero"/><path fill="#7e7f25" d="M 52.550781 27.667969 C 54.324219 27.667969 55.214844 26.808594 55.214844 25.097656 C 55.214844 24.617188 55.179688 24.054688 55.105469 23.402344 L 54.941406 21.820312 C 54.84375 20.8125 54.757812 19.714844 54.683594 18.53125 C 54.210938 20.046875 53.460938 21.792969 52.425781 23.769531 C 52.855469 23.96875 53.066406 24.265625 53.066406 24.65625 C 53.066406 25.046875 52.953125 25.386719 52.734375 25.671875 C 52.511719 25.953125 52.214844 26.097656 51.835938 26.097656 C 51.460938 26.097656 51.214844 25.976562 51.09375 25.730469 C 51.09375 27.023438 51.582031 27.667969 52.550781 27.667969 Z M 62.3125 24.730469 C 61.160156 26.066406 59.742188 27.222656 58.054688 28.195312 C 57.003906 29.304688 55.546875 29.859375 53.679688 29.859375 C 52.375 29.859375 51.371094 29.507812 50.667969 28.796875 C 49.964844 28.089844 49.613281 27.335938 49.613281 26.539062 C 49.613281 25.738281 49.769531 25.117188 50.074219 24.675781 C 50.382812 24.234375 50.726562 23.921875 51.09375 23.742188 C 52.402344 21.414062 53.542969 18.675781 54.523438 15.527344 L 58.640625 14.988281 C 58.714844 16.71875 58.785156 18.167969 58.859375 19.332031 L 59.199219 23.726562 C 59.234375 24.160156 59.25 24.589844 59.25 25.015625 C 59.25 25.4375 59.214844 25.808594 59.144531 26.125 C 59.957031 25.65625 60.625 25.191406 61.140625 24.730469 L 62.3125 24.730469 " fill-opacity="1" fill-rule="nonzero"/><path fill="#7e7f25" d="M 66.714844 17.246094 C 67.648438 16.234375 68.730469 15.730469 69.960938 15.730469 C 70.851562 15.730469 71.589844 15.972656 72.179688 16.460938 C 72.769531 16.949219 73.0625 17.671875 73.0625 18.628906 C 73.0625 19.582031 72.910156 20.667969 72.601562 21.875 L 71.933594 24.554688 C 71.789062 25.140625 71.71875 25.617188 71.71875 25.988281 C 71.71875 26.359375 71.796875 26.648438 71.957031 26.863281 C 72.113281 27.074219 72.410156 27.179688 72.84375 27.179688 C 73.28125 27.179688 73.585938 27.121094 73.757812 27.003906 C 73.621094 28.003906 73.257812 28.730469 72.667969 29.183594 C 72.082031 29.632812 71.46875 29.859375 70.832031 29.859375 C 69.738281 29.859375 68.972656 29.5625 68.539062 28.972656 C 68.101562 28.382812 67.882812 27.671875 67.882812 26.839844 C 67.882812 26.011719 68.09375 24.765625 68.507812 23.105469 C 68.925781 21.445312 69.136719 20.300781 69.136719 19.667969 C 69.136719 18.722656 68.800781 18.25 68.128906 18.25 C 67.242188 18.25 66.542969 18.988281 66.035156 20.464844 L 64.066406 29.695312 L 60.054688 29.695312 L 64.089844 10.84375 L 68.210938 10.289062 L 66.714844 17.246094 " fill-opacity="1" fill-rule="nonzero"/></svg>