<svg xmlns="http://www.w3.org/2000/svg" xmlns:xlink="http://www.w3.org/1999/xlink" width="1920" zoomAndPan="magnify" viewBox="0 0 1440 374.999991" height="500" preserveAspectRatio="xMidYMid meet" version="1.0"><defs><filter x="0%" y="0%" width="100%" height="100%" id="4f008dcce1"><feColorMatrix values="0 0 0 0 1 0 0 0 0 1 0 0 0 0 1 0 0 0 1 0" color-interpolation-filters="sRGB"/></filter><mask id="bdaa151702"><g filter="url(#4f008dcce1)"><rect x="-144" width="1728" fill="#000000" y="-37.499999" height="449.999989" fill-opacity="0.5"/></g></mask><clipPath id="0b1e9eb2a8"><path d="M 0 0 L 232.519531 0 L 232.519531 301 L 0 301 Z M 0 0 " clip-rule="nonzero"/></clipPath><clipPath id="f088e13b02"><rect x="0" width="234" y="0" height="302"/></clipPath></defs><rect x="-144" width="1728" fill="#ffffff" y="-37.499999" height="449.999989" fill-opacity="1"/><rect x="-144" width="1728" fill="#cdb0e0" y="-37.499999" height="449.999989" fill-opacity="1"/><g mask="url(#bdaa151702)"><g transform="matrix(1, 0, 0, 1, 0, 0)"><g clip-path="url(#f088e13b02)"><g clip-path="url(#0b1e9eb2a8)"><path fill="#e7d6f1" d="M 231.765625 126.0625 L 157.296875 76.769531 L 228.921875 100.671875 C 229.085938 100.726562 229.253906 100.75 229.425781 100.75 C 229.613281 100.753906 229.800781 100.722656 229.976562 100.65625 C 230.15625 100.59375 230.320312 100.5 230.464844 100.375 C 230.609375 100.253906 230.730469 100.109375 230.824219 99.945312 C 230.917969 99.78125 230.980469 99.601562 231.007812 99.414062 C 231.039062 99.226562 231.039062 99.042969 231 98.855469 C 230.964844 98.667969 230.898438 98.492188 230.800781 98.332031 C 230.699219 98.167969 230.578125 98.027344 230.429688 97.910156 C 230.28125 97.792969 230.113281 97.703125 229.933594 97.644531 L 156.199219 73.082031 L 223.488281 73.082031 C 223.699219 73.082031 223.902344 73.039062 224.097656 72.960938 C 224.292969 72.878906 224.464844 72.761719 224.617188 72.613281 C 224.765625 72.464844 224.878906 72.292969 224.960938 72.097656 C 225.042969 71.902344 225.082031 71.699219 225.082031 71.488281 C 225.082031 71.277344 225.042969 71.074219 224.960938 70.878906 C 224.878906 70.683594 224.765625 70.507812 224.617188 70.359375 C 224.464844 70.210938 224.292969 70.097656 224.097656 70.015625 C 223.902344 69.933594 223.699219 69.894531 223.488281 69.894531 L 154.753906 69.894531 L 213.800781 46.597656 C 213.996094 46.519531 214.167969 46.40625 214.320312 46.257812 C 214.46875 46.113281 214.585938 45.941406 214.667969 45.75 C 214.753906 45.554688 214.796875 45.351562 214.800781 45.144531 C 214.800781 44.933594 214.765625 44.730469 214.6875 44.535156 C 214.609375 44.339844 214.5 44.164062 214.351562 44.011719 C 214.207031 43.863281 214.035156 43.742188 213.84375 43.660156 C 213.652344 43.574219 213.449219 43.53125 213.238281 43.527344 C 213.027344 43.523438 212.824219 43.558594 212.628906 43.632812 L 153.242188 67.066406 L 199.976562 21.859375 C 200.140625 21.714844 200.269531 21.542969 200.363281 21.347656 C 200.457031 21.152344 200.507812 20.945312 200.515625 20.726562 C 200.523438 20.507812 200.488281 20.296875 200.410156 20.09375 C 200.335938 19.890625 200.21875 19.710938 200.066406 19.554688 C 199.917969 19.398438 199.742188 19.277344 199.539062 19.195312 C 199.339844 19.109375 199.128906 19.070312 198.910156 19.070312 C 198.695312 19.070312 198.484375 19.117188 198.285156 19.203125 C 198.085938 19.289062 197.910156 19.414062 197.761719 19.570312 L 151.550781 64.238281 L 182.257812 -0.433594 C 182.335938 -0.621094 182.375 -0.820312 182.378906 -1.023438 C 182.378906 -1.226562 182.34375 -1.425781 182.269531 -1.613281 C 182.195312 -1.804688 182.089844 -1.976562 181.953125 -2.125 C 181.8125 -2.273438 181.652344 -2.390625 181.464844 -2.480469 C 181.28125 -2.566406 181.089844 -2.617188 180.882812 -2.628906 C 180.679688 -2.640625 180.480469 -2.617188 180.289062 -2.554688 C 180.09375 -2.488281 179.917969 -2.394531 179.761719 -2.261719 C 179.605469 -2.132812 179.480469 -1.976562 179.382812 -1.796875 L 149.449219 61.25 L 161.113281 -19.539062 C 161.144531 -19.75 161.132812 -19.960938 161.078125 -20.167969 C 161.027344 -20.375 160.9375 -20.5625 160.808594 -20.734375 C 160.679688 -20.90625 160.523438 -21.042969 160.339844 -21.152344 C 160.15625 -21.261719 159.957031 -21.332031 159.746094 -21.363281 C 159.535156 -21.390625 159.328125 -21.378906 159.121094 -21.328125 C 158.914062 -21.273438 158.722656 -21.183594 158.554688 -21.054688 C 158.382812 -20.925781 158.242188 -20.769531 158.132812 -20.585938 C 158.023438 -20.402344 157.957031 -20.203125 157.925781 -19.992188 L 146.613281 58.414062 L 137.148438 -34.957031 C 137.125 -35.167969 137.066406 -35.367188 136.964844 -35.554688 C 136.863281 -35.742188 136.734375 -35.902344 136.566406 -36.035156 C 136.402344 -36.171875 136.21875 -36.269531 136.015625 -36.328125 C 135.8125 -36.390625 135.605469 -36.410156 135.394531 -36.390625 C 135.183594 -36.367188 134.984375 -36.308594 134.796875 -36.207031 C 134.609375 -36.105469 134.449219 -35.976562 134.316406 -35.8125 C 134.179688 -35.644531 134.082031 -35.460938 134.019531 -35.257812 C 133.960938 -35.054688 133.941406 -34.847656 133.960938 -34.636719 L 143.21875 56.085938 L 111.007812 -46.285156 C 110.953125 -46.496094 110.859375 -46.6875 110.722656 -46.863281 C 110.589844 -47.035156 110.429688 -47.175781 110.238281 -47.28125 C 110.046875 -47.386719 109.839844 -47.449219 109.625 -47.472656 C 109.40625 -47.496094 109.195312 -47.472656 108.984375 -47.40625 C 108.777344 -47.339844 108.589844 -47.238281 108.425781 -47.09375 C 108.257812 -46.953125 108.128906 -46.78125 108.03125 -46.585938 C 107.9375 -46.390625 107.882812 -46.183594 107.871094 -45.964844 C 107.863281 -45.746094 107.894531 -45.535156 107.972656 -45.328125 L 139.378906 54.523438 L 83.417969 -53.273438 C 83.316406 -53.460938 83.1875 -53.621094 83.027344 -53.757812 C 82.863281 -53.894531 82.679688 -53.992188 82.480469 -54.058594 C 82.277344 -54.121094 82.070312 -54.144531 81.859375 -54.125 C 81.648438 -54.105469 81.449219 -54.046875 81.261719 -53.949219 C 81.074219 -53.851562 80.914062 -53.722656 80.777344 -53.5625 C 80.640625 -53.398438 80.539062 -53.21875 80.476562 -53.015625 C 80.414062 -52.8125 80.390625 -52.609375 80.40625 -52.398438 C 80.425781 -52.1875 80.484375 -51.988281 80.578125 -51.796875 L 135.433594 53.847656 L 55.070312 -55.734375 C 54.949219 -55.917969 54.800781 -56.074219 54.617188 -56.195312 C 54.433594 -56.320312 54.234375 -56.402344 54.019531 -56.441406 C 53.800781 -56.480469 53.585938 -56.476562 53.371094 -56.429688 C 53.160156 -56.378906 52.960938 -56.289062 52.785156 -56.160156 C 52.609375 -56.03125 52.464844 -55.871094 52.351562 -55.679688 C 52.242188 -55.492188 52.171875 -55.285156 52.144531 -55.066406 C 52.117188 -54.851562 52.136719 -54.636719 52.199219 -54.425781 C 52.261719 -54.214844 52.363281 -54.023438 52.503906 -53.855469 L 134.566406 58.015625 L 18.5625 -52.1875 C 18.410156 -52.335938 18.234375 -52.445312 18.035156 -52.519531 C 17.839844 -52.597656 17.632812 -52.628906 17.421875 -52.625 C 17.210938 -52.617188 17.007812 -52.574219 16.816406 -52.484375 C 16.621094 -52.398438 16.453125 -52.277344 16.308594 -52.125 C 16.164062 -51.972656 16.054688 -51.796875 15.976562 -51.601562 C 15.902344 -51.40625 15.867188 -51.199219 15.871094 -50.992188 C 15.878906 -50.78125 15.921875 -50.578125 16.007812 -50.386719 C 16.09375 -50.191406 16.210938 -50.023438 16.363281 -49.878906 L 127.109375 55.34375 L -8.742188 -44.316406 C -8.910156 -44.449219 -9.101562 -44.546875 -9.308594 -44.601562 C -9.515625 -44.65625 -9.726562 -44.671875 -9.941406 -44.640625 C -10.152344 -44.613281 -10.351562 -44.542969 -10.539062 -44.433594 C -10.722656 -44.324219 -10.878906 -44.179688 -11.007812 -44.007812 C -11.136719 -43.835938 -11.222656 -43.644531 -11.273438 -43.433594 C -11.324219 -43.222656 -11.332031 -43.011719 -11.296875 -42.800781 C -11.261719 -42.585938 -11.183594 -42.390625 -11.070312 -42.207031 C -10.953125 -42.027344 -10.808594 -41.875 -10.628906 -41.753906 L 124.015625 57.042969 L -34.453125 -32.207031 C -34.636719 -32.3125 -34.832031 -32.378906 -35.042969 -32.40625 C -35.253906 -32.433594 -35.464844 -32.417969 -35.667969 -32.363281 C -35.875 -32.308594 -36.058594 -32.214844 -36.226562 -32.085938 C -36.394531 -31.957031 -36.53125 -31.796875 -36.640625 -31.613281 C -36.746094 -31.429688 -36.8125 -31.230469 -36.835938 -31.019531 C -36.863281 -30.808594 -36.851562 -30.601562 -36.796875 -30.398438 C -36.738281 -30.191406 -36.648438 -30.003906 -36.515625 -29.835938 C -36.386719 -29.667969 -36.230469 -29.53125 -36.046875 -29.425781 L 121.394531 59.25 L -57.867188 -16.160156 C -58.0625 -16.242188 -58.265625 -16.285156 -58.476562 -16.285156 C -58.6875 -16.289062 -58.894531 -16.25 -59.089844 -16.171875 C -59.285156 -16.089844 -59.457031 -15.976562 -59.609375 -15.828125 C -59.761719 -15.679688 -59.875 -15.507812 -59.960938 -15.3125 C -60.042969 -15.117188 -60.082031 -14.914062 -60.085938 -14.703125 C -60.085938 -14.492188 -60.046875 -14.289062 -59.96875 -14.089844 C -59.886719 -13.894531 -59.773438 -13.722656 -59.625 -13.570312 C -59.476562 -13.421875 -59.304688 -13.304688 -59.109375 -13.222656 L 119.316406 61.800781 L -78.414062 3.40625 C -78.621094 3.332031 -78.835938 3.300781 -79.054688 3.316406 C -79.273438 3.328125 -79.480469 3.386719 -79.675781 3.484375 C -79.871094 3.585938 -80.039062 3.71875 -80.179688 3.886719 C -80.320312 4.054688 -80.421875 4.246094 -80.484375 4.457031 C -80.542969 4.664062 -80.5625 4.878906 -80.535156 5.097656 C -80.511719 5.316406 -80.441406 5.519531 -80.332031 5.707031 C -80.21875 5.898438 -80.078125 6.058594 -79.902344 6.1875 C -79.722656 6.316406 -79.527344 6.410156 -79.316406 6.457031 L 117.628906 64.621094 L -95.59375 25.984375 C -95.800781 25.949219 -96.007812 25.953125 -96.214844 25.996094 C -96.421875 26.042969 -96.613281 26.125 -96.785156 26.246094 C -96.960938 26.367188 -97.101562 26.515625 -97.21875 26.695312 C -97.332031 26.871094 -97.40625 27.066406 -97.445312 27.273438 C -97.484375 27.480469 -97.480469 27.6875 -97.433594 27.894531 C -97.390625 28.101562 -97.304688 28.292969 -97.183594 28.464844 C -97.066406 28.640625 -96.914062 28.78125 -96.738281 28.898438 C -96.558594 29.011719 -96.367188 29.085938 -96.160156 29.125 L 116.425781 67.65625 L -108.945312 51.003906 C -109.15625 50.988281 -109.363281 51.011719 -109.566406 51.078125 C -109.765625 51.144531 -109.945312 51.246094 -110.109375 51.386719 C -110.269531 51.523438 -110.394531 51.6875 -110.492188 51.875 C -110.585938 52.066406 -110.644531 52.265625 -110.660156 52.476562 C -110.675781 52.6875 -110.648438 52.894531 -110.582031 53.097656 C -110.515625 53.296875 -110.414062 53.476562 -110.277344 53.640625 C -110.136719 53.800781 -109.976562 53.925781 -109.785156 54.023438 C -109.597656 54.117188 -109.394531 54.175781 -109.183594 54.191406 L 115.667969 70.800781 L -118.109375 77.820312 C -118.320312 77.824219 -118.523438 77.867188 -118.714844 77.953125 C -118.910156 78.035156 -119.082031 78.152344 -119.226562 78.304688 C -119.375 78.457031 -119.488281 78.628906 -119.566406 78.828125 C -119.644531 79.023438 -119.679688 79.226562 -119.679688 79.4375 C -119.675781 79.648438 -119.632812 79.851562 -119.546875 80.046875 C -119.464844 80.242188 -119.347656 80.410156 -119.195312 80.558594 C -119.042969 80.707031 -118.867188 80.816406 -118.671875 80.894531 C -118.476562 80.972656 -118.273438 81.011719 -118.058594 81.007812 L -118.011719 81.007812 L 115.429688 73.988281 L -122.953125 105.753906 C -123.164062 105.769531 -123.363281 105.820312 -123.554688 105.914062 C -123.746094 106.007812 -123.910156 106.136719 -124.046875 106.292969 C -124.1875 106.453125 -124.292969 106.632812 -124.359375 106.832031 C -124.429688 107.035156 -124.457031 107.238281 -124.441406 107.453125 C -124.429688 107.664062 -124.375 107.863281 -124.28125 108.054688 C -124.1875 108.242188 -124.0625 108.40625 -123.902344 108.546875 C -123.742188 108.6875 -123.5625 108.792969 -123.363281 108.859375 C -123.164062 108.929688 -122.957031 108.953125 -122.746094 108.941406 L -122.539062 108.941406 L 115.476562 77.214844 L -123.253906 134.085938 C -123.441406 134.136719 -123.609375 134.214844 -123.765625 134.328125 C -123.921875 134.4375 -124.050781 134.574219 -124.160156 134.730469 C -124.265625 134.890625 -124.34375 135.0625 -124.386719 135.246094 C -124.433594 135.433594 -124.445312 135.621094 -124.421875 135.808594 C -124.402344 136 -124.347656 136.179688 -124.257812 136.347656 C -124.171875 136.519531 -124.058594 136.667969 -123.917969 136.796875 C -123.777344 136.929688 -123.617188 137.027344 -123.441406 137.101562 C -123.261719 137.171875 -123.078125 137.210938 -122.886719 137.21875 C -122.765625 137.21875 -122.640625 137.199219 -122.523438 137.167969 L 116.011719 80.324219 L -119.046875 162.097656 C -119.410156 162.230469 -119.6875 162.460938 -119.882812 162.796875 C -120.074219 163.128906 -120.140625 163.484375 -120.074219 163.863281 C -120.011719 164.242188 -119.832031 164.558594 -119.539062 164.808594 C -119.246094 165.058594 -118.90625 165.1875 -118.523438 165.191406 C -118.34375 165.191406 -118.167969 165.164062 -117.996094 165.101562 L 116.925781 83.390625 L -110.4375 189.066406 C -110.773438 189.226562 -111.023438 189.472656 -111.1875 189.808594 C -111.351562 190.144531 -111.394531 190.492188 -111.3125 190.855469 C -111.230469 191.222656 -111.046875 191.519531 -110.753906 191.753906 C -110.464844 191.988281 -110.132812 192.105469 -109.757812 192.105469 C -109.523438 192.105469 -109.300781 192.054688 -109.089844 191.953125 L 118.226562 86.304688 L -97.640625 214.316406 C -97.949219 214.5 -98.167969 214.753906 -98.304688 215.085938 C -98.4375 215.417969 -98.457031 215.753906 -98.367188 216.101562 C -98.273438 216.445312 -98.085938 216.726562 -97.804688 216.945312 C -97.519531 217.164062 -97.199219 217.277344 -96.84375 217.28125 C -96.558594 217.277344 -96.292969 217.203125 -96.046875 217.058594 L 119.867188 89.03125 L -80.988281 237.222656 C -81.265625 237.425781 -81.457031 237.691406 -81.5625 238.019531 C -81.667969 238.347656 -81.664062 238.675781 -81.558594 239.003906 C -81.449219 239.332031 -81.253906 239.59375 -80.976562 239.796875 C -80.695312 240 -80.386719 240.097656 -80.039062 240.097656 C -79.675781 240.097656 -79.351562 239.984375 -79.070312 239.757812 L 121.875 91.566406 L -60.917969 257.125 C -61.167969 257.34375 -61.332031 257.617188 -61.414062 257.9375 C -61.492188 258.261719 -61.472656 258.578125 -61.351562 258.890625 C -61.234375 259.199219 -61.039062 259.449219 -60.761719 259.636719 C -60.488281 259.824219 -60.183594 259.917969 -59.851562 259.914062 C -59.441406 259.914062 -59.085938 259.773438 -58.785156 259.5 L 124.097656 93.773438 L -37.941406 273.601562 C -38.082031 273.757812 -38.1875 273.9375 -38.257812 274.136719 C -38.328125 274.332031 -38.355469 274.539062 -38.347656 274.75 C -38.335938 274.960938 -38.285156 275.160156 -38.191406 275.351562 C -38.101562 275.539062 -37.980469 275.707031 -37.820312 275.847656 C -37.519531 276.125 -37.164062 276.261719 -36.753906 276.261719 C -36.28125 276.257812 -35.890625 276.082031 -35.574219 275.726562 L 126.679688 95.667969 L -12.636719 286.207031 C -12.8125 286.449219 -12.914062 286.71875 -12.9375 287.015625 C -12.964844 287.316406 -12.90625 287.597656 -12.773438 287.867188 C -12.636719 288.132812 -12.441406 288.34375 -12.1875 288.503906 C -11.933594 288.660156 -11.652344 288.738281 -11.355469 288.738281 C -10.8125 288.742188 -10.382812 288.523438 -10.0625 288.085938 L 129.46875 97.285156 L 14.339844 294.609375 C 14.234375 294.792969 14.167969 294.988281 14.140625 295.199219 C 14.109375 295.40625 14.125 295.613281 14.175781 295.816406 C 14.230469 296.019531 14.320312 296.207031 14.449219 296.375 C 14.578125 296.542969 14.730469 296.679688 14.914062 296.785156 C 15.160156 296.933594 15.425781 297.003906 15.710938 297 C 15.996094 297 16.261719 296.929688 16.507812 296.789062 C 16.753906 296.644531 16.945312 296.449219 17.089844 296.203125 L 132.453125 98.472656 L 42.296875 298.609375 C 42.210938 298.804688 42.164062 299.003906 42.160156 299.214844 C 42.152344 299.425781 42.1875 299.628906 42.261719 299.828125 C 42.335938 300.023438 42.445312 300.199219 42.589844 300.351562 C 42.734375 300.507812 42.902344 300.625 43.09375 300.714844 C 43.300781 300.808594 43.519531 300.855469 43.746094 300.855469 C 44.058594 300.855469 44.347656 300.769531 44.609375 300.601562 C 44.875 300.429688 45.070312 300.203125 45.195312 299.917969 L 135.609375 99.238281 L 70.53125 298.109375 C 70.46875 298.308594 70.441406 298.515625 70.460938 298.726562 C 70.476562 298.9375 70.53125 299.136719 70.628906 299.324219 C 70.722656 299.511719 70.851562 299.675781 71.011719 299.8125 C 71.171875 299.949219 71.351562 300.050781 71.554688 300.117188 C 71.710938 300.171875 71.878906 300.203125 72.046875 300.203125 C 72.390625 300.203125 72.703125 300.101562 72.980469 299.898438 C 73.261719 299.695312 73.453125 299.433594 73.5625 299.105469 L 138.890625 99.523438 L 98.339844 293.128906 C 98.296875 293.335938 98.292969 293.542969 98.332031 293.75 C 98.371094 293.960938 98.449219 294.152344 98.566406 294.328125 C 98.679688 294.507812 98.824219 294.65625 99 294.773438 C 99.175781 294.894531 99.367188 294.972656 99.574219 295.015625 C 99.683594 295.027344 99.792969 295.027344 99.902344 295.015625 C 100.277344 295.015625 100.609375 294.894531 100.902344 294.660156 C 101.191406 294.421875 101.378906 294.117188 101.453125 293.75 L 142.199219 99.261719 L 124.941406 283.816406 C 124.921875 284.023438 124.945312 284.230469 125.007812 284.429688 C 125.070312 284.632812 125.167969 284.8125 125.300781 284.976562 C 125.4375 285.136719 125.597656 285.265625 125.78125 285.367188 C 125.96875 285.464844 126.167969 285.523438 126.375 285.542969 L 126.527344 285.542969 C 126.726562 285.546875 126.917969 285.511719 127.105469 285.4375 C 127.289062 285.367188 127.457031 285.265625 127.605469 285.132812 C 127.75 285 127.871094 284.84375 127.957031 284.664062 C 128.046875 284.488281 128.101562 284.300781 128.121094 284.101562 L 145.464844 98.464844 L 149.734375 270.335938 C 149.742188 270.542969 149.785156 270.742188 149.867188 270.933594 C 149.953125 271.121094 150.066406 271.289062 150.214844 271.4375 C 150.367188 271.582031 150.535156 271.691406 150.730469 271.769531 C 150.921875 271.847656 151.121094 271.886719 151.328125 271.886719 L 151.371094 271.886719 C 151.578125 271.882812 151.777344 271.839844 151.964844 271.753906 C 152.15625 271.671875 152.324219 271.554688 152.46875 271.40625 C 152.617188 271.257812 152.726562 271.089844 152.804688 270.894531 C 152.882812 270.703125 152.921875 270.503906 152.921875 270.292969 L 148.613281 97.078125 L 172.058594 253.148438 C 172.089844 253.339844 172.148438 253.519531 172.242188 253.6875 C 172.335938 253.855469 172.453125 254.003906 172.601562 254.128906 C 172.746094 254.253906 172.910156 254.351562 173.09375 254.414062 C 173.273438 254.480469 173.460938 254.511719 173.652344 254.511719 L 173.894531 254.511719 C 174.101562 254.480469 174.296875 254.410156 174.476562 254.300781 C 174.65625 254.191406 174.808594 254.054688 174.9375 253.882812 C 175.0625 253.714844 175.148438 253.527344 175.199219 253.324219 C 175.25 253.117188 175.261719 252.910156 175.230469 252.703125 L 151.511719 94.992188 L 191.347656 232.601562 C 191.449219 232.941406 191.640625 233.21875 191.921875 233.429688 C 192.207031 233.640625 192.523438 233.75 192.878906 233.75 C 193.03125 233.75 193.179688 233.730469 193.324219 233.683594 C 193.527344 233.625 193.710938 233.53125 193.875 233.398438 C 194.039062 233.265625 194.171875 233.109375 194.273438 232.925781 C 194.375 232.738281 194.4375 232.542969 194.460938 232.335938 C 194.484375 232.125 194.464844 231.917969 194.410156 231.71875 L 154.046875 92.289062 L 207.132812 209.296875 C 207.261719 209.582031 207.457031 209.8125 207.71875 209.980469 C 207.980469 210.152344 208.269531 210.238281 208.582031 210.238281 C 208.714844 210.238281 208.847656 210.222656 208.976562 210.1875 C 209.105469 210.15625 209.230469 210.105469 209.347656 210.042969 C 209.464844 209.980469 209.570312 209.902344 209.667969 209.808594 C 209.765625 209.71875 209.851562 209.617188 209.921875 209.503906 C 209.996094 209.394531 210.050781 209.273438 210.09375 209.148438 C 210.136719 209.019531 210.164062 208.890625 210.171875 208.757812 C 210.179688 208.625 210.175781 208.492188 210.152344 208.363281 C 210.128906 208.230469 210.085938 208.105469 210.03125 207.984375 L 156.023438 88.871094 L 219.003906 183.683594 C 219.320312 184.15625 219.761719 184.394531 220.335938 184.390625 C 220.652344 184.390625 220.945312 184.304688 221.210938 184.128906 C 221.386719 184.011719 221.53125 183.867188 221.652344 183.691406 C 221.769531 183.515625 221.847656 183.324219 221.890625 183.117188 C 221.933594 182.910156 221.933594 182.703125 221.890625 182.496094 C 221.851562 182.289062 221.773438 182.097656 221.65625 181.921875 L 157.289062 85.015625 L 226.683594 156.640625 C 226.996094 156.964844 227.378906 157.128906 227.832031 157.128906 C 228.152344 157.125 228.441406 157.035156 228.707031 156.859375 C 228.972656 156.683594 229.167969 156.449219 229.292969 156.152344 C 229.417969 155.859375 229.449219 155.554688 229.390625 155.242188 C 229.332031 154.925781 229.191406 154.65625 228.96875 154.425781 L 157.71875 80.878906 L 230.007812 128.722656 C 230.273438 128.898438 230.5625 128.988281 230.882812 128.988281 C 231.234375 128.984375 231.546875 128.882812 231.828125 128.671875 C 232.109375 128.464844 232.300781 128.191406 232.402344 127.855469 C 232.503906 127.519531 232.496094 127.1875 232.378906 126.859375 C 232.261719 126.527344 232.058594 126.265625 231.765625 126.070312 Z M 231.765625 126.0625 " fill-opacity="1" fill-rule="nonzero"/></g></g></g></g><path stroke-linecap="butt" transform="matrix(0.749999, -0.00126374, 0.00126374, 0.749999, 560.114044, 50.385395)" fill="none" stroke-linejoin="miter" d="M 0.00250271 1.001771 L 1168.691762 1.002241 " stroke="#000000" stroke-width="2" stroke-opacity="1" stroke-miterlimit="4"/><path stroke-linecap="butt" transform="matrix(0.75, 0, 0, 0.75, 54.625298, 334.461307)" fill="none" stroke-linejoin="miter" d="M -0.000396924 0.999508 L 474.655884 0.999508 " stroke="#000000" stroke-width="2" stroke-opacity="1" stroke-miterlimit="4"/></svg>